# xmcd
#
# Track frame offsets: 
#        150
#        19932
#        38398
#        53895
#        74916
#        85766
#        107438
#        122024
#        135974
#        157648
#        177938
#        190985
#        218669
#        236204
#        256857
#        272330
#        285644
#
# Disc length: 4017 seconds
#
# Revision: 0
# Processed by: cddbd v1.5.2PL0 Copyright (c) Steve Scherf et al.
# Submitted via: ExactAudioCopy v0.95a3
#
DISCID=e00faf11
DTITLE=Compilation - Blues roads CD2
DYEAR=2008
DGENRE=Blues
TTITLE0=Gary Moore -- OH pretty woman
TTITLE1=Popa Chubby -- Sally like to run
TTITLE2=Johnny Winter -- Hustled down in Texas
TTITLE3=ZZ Top -- Blue jean blues
TTITLE4=Steevie Ray Vaughan and Double Trouble -- Life by the drop
TTITLE5=Keb' Mo' -- More than one way home
TTITLE6=Tom Waits -- Whistlin' past the graveyard
TTITLE7=Canned Heat -- Rollin' and tumblin'
TTITLE8=Jonny Lang -- Wander this word
TTITLE9=Robert Randolph and The Family Band -- Nobody
TTITLE10=Koritni -- Never say goodby
TTITLE11=Kenny Wayne Shephered Band -- Deja woodoo
TTITLE12=Chris Rea -- You can go your own way
TTITLE13=Calvin Russel -- Let the music play
TTITLE14=Olu Dara -- Strange Things happen every day
TTITLE15=Ruth Brown -- Mama he treats your daughter mean
TTITLE16=The Blues Brothers -- Soul man (live)
EXTD=
EXTT0=
EXTT1=
EXTT2=
EXTT3=
EXTT4=
EXTT5=
EXTT6=
EXTT7=
EXTT8=
EXTT9=
EXTT10=
EXTT11=
EXTT12=
EXTT13=
EXTT14=
EXTT15=
EXTT16=
PLAYORDER=
